<svg width="348" height="6" viewBox="0 0 348 6" fill="none" xmlns="http://www.w3.org/2000/svg">
<path d="M4.14768 5.29765L8.29535 0H0L4.14768 5.29765Z" fill="#FFFDF8"/>
<path d="M12.4214 5.29765L16.5691 0H8.27378L12.4214 5.29765Z" fill="#FFFDF8"/>
<path d="M20.6955 5.29765L24.8432 0H16.5478L20.6955 5.29765Z" fill="#FFFDF8"/>
<path d="M28.9694 5.29765L33.117 0H24.8217L28.9694 5.29765Z" fill="#FFFDF8"/>
<path d="M37.2433 5.29765L41.391 0H33.0957L37.2433 5.29765Z" fill="#FFFDF8"/>
<path d="M45.5173 5.29765L49.665 0H41.3696L45.5173 5.29765Z" fill="#FFFDF8"/>
<path d="M53.7912 5.29765L57.9389 0H49.6435L53.7912 5.29765Z" fill="#FFFDF8"/>
<path d="M62.0652 5.29765L66.2129 0H57.9175L62.0652 5.29765Z" fill="#FFFDF8"/>
<path d="M70.339 5.29765L74.4867 0H66.1913L70.339 5.29765Z" fill="#FFFDF8"/>
<path d="M78.6131 5.29765L82.7608 0H74.4655L78.6131 5.29765Z" fill="#FFFDF8"/>
<path d="M86.8869 5.29765L91.0345 0H82.7392L86.8869 5.29765Z" fill="#FFFDF8"/>
<path d="M95.1608 5.29765L99.3084 0H91.0131L95.1608 5.29765Z" fill="#FFFDF8"/>
<path d="M103.435 5.29765L107.582 0H99.287L103.435 5.29765Z" fill="#FFFDF8"/>
<path d="M111.709 5.29765L115.856 0H107.561L111.709 5.29765Z" fill="#FFFDF8"/>
<path d="M119.982 5.29765L124.13 0H115.835L119.982 5.29765Z" fill="#FFFDF8"/>
<path d="M128.256 5.29765L132.404 0H124.109L128.256 5.29765Z" fill="#FFFDF8"/>
<path d="M136.53 5.29765L140.678 0H132.383L136.53 5.29765Z" fill="#FFFDF8"/>
<path d="M144.804 5.29765L148.952 0H140.657L144.804 5.29765Z" fill="#FFFDF8"/>
<path d="M153.078 5.29765L157.226 0H148.931L153.078 5.29765Z" fill="#FFFDF8"/>
<path d="M161.352 5.29765L165.5 0H157.204L161.352 5.29765Z" fill="#FFFDF8"/>
<path d="M169.626 5.29765L173.774 0H165.479L169.626 5.29765Z" fill="#FFFDF8"/>
<path d="M177.9 5.29765L182.048 0H173.752L177.9 5.29765Z" fill="#FFFDF8"/>
<path d="M186.174 5.29765L190.322 0H182.026L186.174 5.29765Z" fill="#FFFDF8"/>
<path d="M194.448 5.29765L198.596 0H190.3L194.448 5.29765Z" fill="#FFFDF8"/>
<path d="M202.722 5.29765L206.869 0H198.574L202.722 5.29765Z" fill="#FFFDF8"/>
<path d="M210.995 5.29765L215.143 0H206.848L210.995 5.29765Z" fill="#FFFDF8"/>
<path d="M219.27 5.29765L223.417 0H215.122L219.27 5.29765Z" fill="#FFFDF8"/>
<path d="M227.543 5.29765L231.691 0H223.396L227.543 5.29765Z" fill="#FFFDF8"/>
<path d="M235.817 5.29765L239.965 0H231.67L235.817 5.29765Z" fill="#FFFDF8"/>
<path d="M244.091 5.29765L248.239 0H239.944L244.091 5.29765Z" fill="#FFFDF8"/>
<path d="M252.365 5.29765L256.513 0H248.218L252.365 5.29765Z" fill="#FFFDF8"/>
<path d="M260.639 5.29765L264.787 0H256.492L260.639 5.29765Z" fill="#FFFDF8"/>
<path d="M268.913 5.29765L273.061 0H264.766L268.913 5.29765Z" fill="#FFFDF8"/>
<path d="M277.187 5.29765L281.335 0H273.039L277.187 5.29765Z" fill="#FFFDF8"/>
<path d="M285.461 5.29765L289.609 0H281.313L285.461 5.29765Z" fill="#FFFDF8"/>
<path d="M293.735 5.29765L297.883 0H289.587L293.735 5.29765Z" fill="#FFFDF8"/>
<path d="M302.009 5.29765L306.157 0H297.861L302.009 5.29765Z" fill="#FFFDF8"/>
<path d="M310.283 5.29765L314.431 0H306.135L310.283 5.29765Z" fill="#FFFDF8"/>
<path d="M318.557 5.29765L322.704 0H314.409L318.557 5.29765Z" fill="#FFFDF8"/>
<path d="M326.831 5.29765L330.978 0H322.683L326.831 5.29765Z" fill="#FFFDF8"/>
<path d="M335.104 5.29765L339.252 0H330.957L335.104 5.29765Z" fill="#FFFDF8"/>
<path d="M343.379 5.29765L347.526 0H339.231L343.379 5.29765Z" fill="#FFFDF8"/>
</svg>
