<svg width="284" height="62" viewBox="0 0 284 62" fill="none" xmlns="http://www.w3.org/2000/svg">
<path d="M0 61.1088V0H2.51254V61.1088H0ZM6.97838 61.1088V0H14.0709V61.1088H6.97838ZM18.9395 61.1088V0H29.6419V61.1088H18.9395ZM34.0571 61.1088V0H39.0822V61.1088H34.0571ZM42.41 61.1088V0H51.4412V61.1088H42.41Z" fill="#121212"/>
<path d="M126.182 0V61.1088H116.849V0H126.182ZM112.183 0V61.1088H102.851V0H112.183ZM98.1848 0V61.1088H93.5186V0H98.1848ZM89.1229 0V61.1088H82.9509V0H89.1229ZM78.2848 0V61.1088H64.2863V0H78.2848ZM59.6201 0V61.1088H54.954V0H59.6201Z" fill="#121212"/>
<path d="M283.638 4.34384e-08V61.1088H275.541V4.34384e-08H283.638ZM271.677 4.34384e-08V61.1088H261.627V4.34384e-08H271.677ZM256.602 4.34384e-08V61.1088H254.089V4.34384e-08H256.602ZM249.623 4.34384e-08V61.1088H242.531V4.34384e-08H249.623ZM237.662 4.34384e-08V61.1088H226.96V4.34384e-08H237.662ZM222.544 4.34384e-08V61.1088H217.519V4.34384e-08H222.544ZM214.192 4.34384e-08V61.1088H205.16V4.34384e-08H214.192Z" fill="#121212"/>
<path d="M130.42 61.1088V4.34384e-08H139.752V61.1088H130.42ZM144.418 61.1088V4.34384e-08H153.751V61.1088H144.418ZM158.417 61.1088V4.34384e-08H163.083V61.1088H158.417ZM167.479 61.1088V4.34384e-08H173.651V61.1088H167.479ZM178.317 61.1088V4.34384e-08H192.315V61.1088H178.317ZM196.981 61.1088V4.34384e-08H201.648V61.1088H196.981Z" fill="#121212"/>
</svg>
