<svg width="348" height="6" viewBox="0 0 348 6" fill="none" xmlns="http://www.w3.org/2000/svg">
<path d="M4.14768 0L8.29535 5.29765H0L4.14768 0Z" fill="#FFFDF8"/>
<path d="M12.4214 0L16.5691 5.29765H8.27378L12.4214 0Z" fill="#FFFDF8"/>
<path d="M20.6955 0L24.8432 5.29765H16.5478L20.6955 0Z" fill="#FFFDF8"/>
<path d="M28.9694 0L33.117 5.29765H24.8217L28.9694 0Z" fill="#FFFDF8"/>
<path d="M37.2433 0L41.391 5.29765H33.0957L37.2433 0Z" fill="#FFFDF8"/>
<path d="M45.5173 0L49.665 5.29765H41.3696L45.5173 0Z" fill="#FFFDF8"/>
<path d="M53.7912 0L57.9389 5.29765H49.6435L53.7912 0Z" fill="#FFFDF8"/>
<path d="M62.0652 0L66.2129 5.29765H57.9175L62.0652 0Z" fill="#FFFDF8"/>
<path d="M70.339 0L74.4867 5.29765H66.1913L70.339 0Z" fill="#FFFDF8"/>
<path d="M78.6131 0L82.7608 5.29765H74.4655L78.6131 0Z" fill="#FFFDF8"/>
<path d="M86.8869 0L91.0345 5.29765H82.7392L86.8869 0Z" fill="#FFFDF8"/>
<path d="M95.1608 0L99.3084 5.29765H91.0131L95.1608 0Z" fill="#FFFDF8"/>
<path d="M103.435 0L107.582 5.29765H99.287L103.435 0Z" fill="#FFFDF8"/>
<path d="M111.709 0L115.856 5.29765H107.561L111.709 0Z" fill="#FFFDF8"/>
<path d="M119.982 0L124.13 5.29765H115.835L119.982 0Z" fill="#FFFDF8"/>
<path d="M128.256 0L132.404 5.29765H124.109L128.256 0Z" fill="#FFFDF8"/>
<path d="M136.53 0L140.678 5.29765H132.383L136.53 0Z" fill="#FFFDF8"/>
<path d="M144.804 0L148.952 5.29765H140.657L144.804 0Z" fill="#FFFDF8"/>
<path d="M153.078 0L157.226 5.29765H148.931L153.078 0Z" fill="#FFFDF8"/>
<path d="M161.352 0L165.5 5.29765H157.204L161.352 0Z" fill="#FFFDF8"/>
<path d="M169.626 0L173.774 5.29765H165.479L169.626 0Z" fill="#FFFDF8"/>
<path d="M177.9 0L182.048 5.29765H173.752L177.9 0Z" fill="#FFFDF8"/>
<path d="M186.174 0L190.322 5.29765H182.026L186.174 0Z" fill="#FFFDF8"/>
<path d="M194.448 0L198.596 5.29765H190.3L194.448 0Z" fill="#FFFDF8"/>
<path d="M202.722 0L206.869 5.29765H198.574L202.722 0Z" fill="#FFFDF8"/>
<path d="M210.995 0L215.143 5.29765H206.848L210.995 0Z" fill="#FFFDF8"/>
<path d="M219.27 0L223.417 5.29765H215.122L219.27 0Z" fill="#FFFDF8"/>
<path d="M227.543 0L231.691 5.29765H223.396L227.543 0Z" fill="#FFFDF8"/>
<path d="M235.817 0L239.965 5.29765H231.67L235.817 0Z" fill="#FFFDF8"/>
<path d="M244.091 0L248.239 5.29765H239.944L244.091 0Z" fill="#FFFDF8"/>
<path d="M252.365 0L256.513 5.29765H248.218L252.365 0Z" fill="#FFFDF8"/>
<path d="M260.639 0L264.787 5.29765H256.492L260.639 0Z" fill="#FFFDF8"/>
<path d="M268.913 0L273.061 5.29765H264.766L268.913 0Z" fill="#FFFDF8"/>
<path d="M277.187 0L281.335 5.29765H273.039L277.187 0Z" fill="#FFFDF8"/>
<path d="M285.461 0L289.609 5.29765H281.313L285.461 0Z" fill="#FFFDF8"/>
<path d="M293.735 0L297.883 5.29765H289.587L293.735 0Z" fill="#FFFDF8"/>
<path d="M302.009 0L306.157 5.29765H297.861L302.009 0Z" fill="#FFFDF8"/>
<path d="M310.283 0L314.431 5.29765H306.135L310.283 0Z" fill="#FFFDF8"/>
<path d="M318.557 0L322.704 5.29765H314.409L318.557 0Z" fill="#FFFDF8"/>
<path d="M326.831 0L330.978 5.29765H322.683L326.831 0Z" fill="#FFFDF8"/>
<path d="M335.104 0L339.252 5.29765H330.957L335.104 0Z" fill="#FFFDF8"/>
<path d="M343.379 0L347.526 5.29765H339.231L343.379 0Z" fill="#FFFDF8"/>
</svg>
