<svg width="1499" height="883" viewBox="0 0 1499 883" fill="none" xmlns="http://www.w3.org/2000/svg">
<path d="M40.1029 0H93.5565L93.585 13.2775C111.318 13.4373 129.354 13.18 147.007 13.455L147.084 26.9603L187.419 27.0611L187.48 39.8898C240.744 40.7852 294.706 39.3011 347.907 40.0913L348.083 53.356C387.998 53.62 428.68 52.8801 468.427 53.4993L468.487 66.8364L494.898 67.0633L495.003 80.3742L521.91 80.5302L521.995 93.289C530.788 93.5138 539.585 93.5804 548.381 93.4896L548.477 80.5038C592.757 80.5016 638.183 79.9525 682.36 80.5265L682.516 93.3073C695.911 93.661 709.157 93.3081 722.416 93.5797L722.476 106.899L735.974 106.984L736.12 120.221C744.903 120.478 753.694 120.548 762.477 120.433L762.572 106.989L775.93 106.965L775.981 93.5226L816.033 93.4706L816.062 80.5038L949.984 80.5207L950.05 93.3147C958.84 93.4992 967.638 93.5599 976.429 93.4955L976.48 80.517L1003.45 80.4738L1003.5 67.1067C1012.3 66.9633 1021.11 66.9318 1029.93 67.0125L1029.98 53.4672L1150.48 53.4398L1150.54 40.1034L1310.94 40.0547L1310.99 27.0374L1351.33 27.0341L1351.52 13.4479L1405.01 13.3744L1405.1 0H1458.56L1458.6 13.2759L1485 13.4565L1485.06 39.9366L1499 40.1991V42.1873C1498.22 45.4621 1498.47 62.3728 1498.42 67.0218L1485.05 67.2659L1485.03 80.6224L1471.55 80.8721C1471.54 89.582 1471.49 98.292 1471.38 107.001L1458.59 107.167C1458.55 116.002 1458.64 125.218 1458.46 134.021L1444.96 134.137L1444.95 174.114L1431.58 174.258C1431.56 196.139 1431.93 219.216 1431.48 240.993L1417.96 241.14L1417.95 321.044C1414.03 321.077 1408.86 321.277 1405.05 321.1C1405.06 369.053 1406.12 421.038 1405.02 468.631L1391.47 468.763V534.939L1405 535.091L1405.1 628.922L1417.89 628.997L1417.98 682.344L1431.49 682.487L1431.57 735.877L1444.91 735.98L1444.95 856.012L1431.59 856.173L1431.48 869.696L1405.1 869.879V883H1378.07L1378.06 869.806C1369.18 869.799 1360.31 869.74 1351.43 869.638L1351.35 856.122L1338.01 855.983L1338 843.184L1324.57 842.95L1324.44 829.72C1319.96 829.712 1315.48 829.676 1311 829.603L1310.98 816.197L1297.57 816.028L1297.47 802.732C1293.2 802.783 1288.78 802.615 1284.51 802.512L1284.46 789.816C1275.49 789.838 1266.43 789.956 1257.48 789.56L1257.44 776.132L1244.1 776.059L1244.05 762.843L1231.08 762.704L1231.06 749.1L1217.46 749.005L1217.34 736.156L1204.04 735.965L1204.01 722.755L1190.43 722.602L1190.37 709.171L1177.57 708.944L1177.47 695.71L1164.01 695.625L1163.94 682.853C1146.35 682.517 1127.9 683.285 1110.44 682.512L1110.4 669.164L1097.08 669.085V655.816C1074.95 655.736 1052.06 656.174 1030 655.668L1029.98 642.134L990.101 642.067V629.079L976.48 628.974L976.414 615.752C958.613 615.688 940.813 615.722 923.019 615.854L922.99 629.012L843.092 628.995L843.063 615.788L789.522 615.642L789.478 602.113L762.565 601.956L762.484 588.719C753.694 588.673 744.896 588.725 736.106 588.876L736.04 602.008L709.094 602.179L709.063 615.688C691.244 615.624 673.425 615.69 655.608 615.886L655.427 629.014L562.074 628.997L562.046 615.789C548.702 615.695 535.358 615.722 522.015 615.871L521.957 629.023L508.596 629.19L508.487 642.061L468.504 642.208L468.424 655.682C446.801 656.423 423.661 655.469 401.595 655.994L401.395 669.097L387.987 669.21L387.974 682.639C370.765 683.304 352.197 682.446 334.511 682.979L334.456 695.61L321.102 695.859L321.047 709.039C316.602 709.045 311.954 709.239 307.494 709.355L307.422 722.64L294.534 722.871L294.381 735.994L281.044 736.177L281.029 749.034L267.589 749.195L267.406 762.697L254.018 762.909L253.994 776.066L240.977 776.176L240.952 789.677L214.082 789.963L213.954 802.622C209.483 802.725 205.01 802.776 200.538 802.776L200.475 816.087L187.486 816.306L187.409 829.61L174.109 829.94L174.068 843.038L160.489 843.338L160.386 855.997L147.067 856.159L147.04 869.711L120.601 869.901L120.555 883H93.5499L93.4789 869.77L67.0989 869.704C67.0317 865.223 67.0862 860.581 67.0828 856.093L53.4904 855.968C53.0653 816.27 53.4409 775.729 53.4931 735.987L66.975 735.958C67.3399 718.624 67.05 699.873 67.0745 682.448L80.468 682.423L80.5127 615.54L93.4928 615.469L93.5609 535.093L106.943 535.071L106.96 481.781L93.5257 481.632L93.4774 334.714L80.4959 334.563L80.4476 241.099L67.0873 240.987C66.8169 223.553 67.0549 205.278 67.0491 187.785C62.5426 187.859 57.9754 187.657 53.4658 187.514L53.429 134.092L40.1067 134.012L40.1097 107.066L27.0586 106.981L27.0309 80.7249C22.6509 80.8143 17.8309 80.6334 13.4162 80.5609L13.3651 67.1929L0 67.2181V40.0003L13.3388 40.0656L13.4917 13.4514L40.0362 13.374L40.1029 0ZM1364.39 40.114C1351.38 40.1508 1337.56 39.947 1324.62 40.2764L1324.43 53.631C1315.7 53.7146 1306.27 53.9856 1297.59 53.8039L1297.47 67.0983C1288.85 67.1057 1279.59 67.2896 1271.02 67.0695L1271 53.8046C1239.86 53.6357 1208.72 53.6324 1177.59 53.7948L1177.48 67.098C1164.18 67.1382 1150.26 66.9662 1137.02 67.2748L1136.96 80.6195C1132.83 80.6678 1128.2 80.826 1124.11 80.6056L1124.1 67.1925C1101.9 67.1736 1079.13 66.913 1056.97 67.2486V80.632C1044.81 80.6495 1028.94 80.2424 1017.1 81.0149L1016.98 93.6968L990.101 93.8242L990.05 107.011L976.48 107.14L976.407 120.695C967.931 120.71 958.445 120.944 950.05 120.678L950.042 107.074L923.012 106.979L922.99 93.7693L843.085 93.8074L843.063 107.004C825.731 107.028 806.803 106.68 789.603 107.176L789.449 120.688L776.003 120.879L775.959 134.031L762.58 134.163C762.543 142.811 762.66 152.068 762.455 160.671C754.426 160.724 743.937 161.09 736.091 160.644C736.084 151.998 735.915 142.673 736.106 134.083L722.484 133.99L722.413 120.77L709.11 120.677L709.104 107.078C691.443 107.045 673.175 107.23 655.559 106.964L655.408 93.7254C629.465 93.7217 601.248 93.1506 575.493 93.8484L575.387 107.001C566.599 107.041 557.254 106.919 548.513 107.196L548.373 120.694C539.856 120.71 530.448 120.933 522.004 120.691L521.98 107.08L508.572 106.962L508.465 93.7386C499.927 93.7144 489.948 93.9084 481.524 93.6053L481.475 80.714C469.218 80.6942 453.407 81.1364 441.444 80.5397L441.401 67.192C419.627 67.1676 396.25 66.7425 374.607 67.3059L374.447 80.6173C370.135 80.6539 365.26 80.8099 360.998 80.6034L360.974 67.1896C347.966 67.1588 334.02 67.3903 321.093 67.0656L321.043 53.8062C289.885 53.6399 258.727 53.6334 227.569 53.7865L227.476 67.097C218.795 67.1022 209.137 67.3209 200.534 67.032L200.461 53.7449C192.605 53.7401 181.71 54.071 174.096 53.5971L174.093 40.1922L134.004 40.0927L133.999 27.1189L27.0468 27.1121L27.0606 66.8408L40.0201 67.0695L40.1035 93.2942L53.4213 93.587L53.4859 120.26L66.9597 120.54L67.0857 160.332L80.4593 160.478L80.5127 213.862L93.5111 213.993L93.5806 294.338L106.908 294.454L106.977 414.349L120.462 414.495L120.56 516.053C120.558 535.088 121.038 556.764 120.416 575.603L106.995 575.9L106.949 642.076L93.5806 642.183C93.5638 663.699 94.0908 687.721 93.4635 709.022C89.1832 709.117 84.7835 709.158 80.5171 709.335C80.4973 726.81 80.7572 745.293 80.4417 762.697L67.0679 762.894L67.0956 842.848L80.4754 843.016L80.5222 855.902L133.959 855.968L133.997 842.958L147.009 842.95L147.064 829.507L160.386 829.478L160.468 816.05L174.022 815.999L174.087 802.468L187.413 802.446L187.48 789.436L200.477 789.384L200.527 776.066L227.434 776.037L227.55 762.448L240.934 762.36L240.976 749.012L253.968 749.005L254.007 735.958L267.325 735.943L267.506 722.525L281.019 722.479L281.035 708.966L294.335 708.938L294.468 695.511L307.427 695.483L307.49 682.459L321 682.414L321.085 655.424L387.966 655.376L387.993 642.049L401.321 642.04L401.559 628.994L414.392 628.998L414.456 641.96L441.375 642.042L441.472 629.009L481.435 628.972L481.548 615.532L508.454 615.45L508.565 601.996L534.997 601.954L535.035 588.529L548.351 588.567L548.458 601.88L601.915 601.978L602.096 615.233C611.129 615.597 619.902 615.504 628.932 615.442L629 601.961L695.374 601.948L695.471 588.539L722.432 588.498L722.489 575.494L736.003 575.45L736.054 522.021L762.514 522.041L762.572 575.391L775.908 575.496L775.989 588.315C784.779 588.506 793.562 588.59 802.353 588.565L802.463 601.883L869.486 601.986L869.544 615.259C878.518 615.524 887.506 615.597 896.487 615.481L896.545 602.001L949.999 601.953L950.042 588.525L963.349 588.565L963.452 601.881L989.991 601.98L990.123 615.222C999.067 615.598 1007.94 615.548 1016.88 615.551L1017.09 628.911L1056.94 628.994L1057.01 641.959L1083.34 642.043L1083.46 629.013L1097.02 628.995L1097.09 655.31C1123.59 655.424 1151.17 654.95 1177.49 655.469L1177.58 682.352L1190.38 682.481L1190.59 695.386L1203.98 695.529L1204.05 708.839L1217.4 709.007L1217.52 722.339L1231.01 722.552L1231.08 735.87L1244.01 735.98L1244.13 748.947L1257.45 749.027L1257.51 762.265L1270.89 762.448L1271.11 775.964L1297.51 776.066L1297.61 789.304L1310.92 789.443L1311 802.351L1324.45 802.505L1324.59 815.838C1328.34 815.852 1334.15 815.223 1336.96 816.819C1338.57 819.33 1337.99 819.865 1338 823.409C1338.05 826.469 1337.54 826.733 1339.07 828.878C1342.21 830.503 1347.4 829.412 1351.35 829.537C1351.41 833.703 1351.62 838.74 1351.49 842.833L1364.4 843.016L1364.46 855.902L1417.9 855.968L1417.97 842.972L1431.44 842.943L1431.49 762.792C1427.2 762.763 1422.22 762.843 1418 762.667L1417.97 709.135L1405.09 708.991L1405.06 655.855C1400.95 655.803 1395.44 655.893 1391.46 655.513L1391.43 588.714L1378.11 588.639L1378.09 401.413L1391.44 401.376C1391.44 361.776 1390.85 320.537 1391.49 281.077L1405.01 281.061L1405.06 213.957L1417.92 213.953L1418 160.437L1431.49 160.407L1431.55 120.516L1444.95 120.401L1444.98 93.5226L1458.48 93.4889L1458.56 67.0674L1471.33 67.0261L1471.38 27.1126C1436.62 27.1066 1399.03 26.459 1364.49 27.1917L1364.39 40.114Z" fill="black"/>
<path d="M40.0743 40.0902L93.514 40.102L93.5938 53.371C110.966 53.7212 129.557 53.459 147.011 53.4832L147.081 66.8388C155.774 67.1046 165.274 67.0059 174.028 67.0677L174.107 80.3742C182.678 80.5829 191.852 80.4899 200.468 80.5382L200.527 106.904L213.887 106.986C214.028 115.882 213.959 125.029 213.986 133.944L227.511 134.017L227.563 160.343L240.888 160.456C241.075 173.654 240.952 187.149 240.975 200.373L253.955 200.545L254.009 227.31L267.359 227.573C267.626 236.172 267.47 245.32 267.468 253.961L281 254.043L281.057 267.266L294.349 267.469L294.467 280.963L307.435 281.083L307.493 294.326C316.312 294.491 325.607 294.38 334.461 294.399L334.454 281.144L321.101 281.074C320.952 272.239 321.093 262.973 321.106 254.103L307.487 254.023L307.422 227.733L294.412 227.62L294.363 200.717C289.973 200.743 285.458 200.65 281.057 200.612L281.027 187.761C276.57 187.908 271.9 187.665 267.427 187.515L267.358 160.789C262.998 160.877 258.403 160.729 254.025 160.662L254.012 147.146L240.97 147.083L240.95 120.797L227.523 120.634L227.56 80.5111L347.879 80.5185C348.144 89.0746 347.995 98.2993 348.013 106.907L360.909 106.988L360.974 133.942L374.396 133.996C374.547 120.509 374.604 107.022 374.57 93.535L455.01 93.5585L455.118 106.902L481.503 106.998L481.571 120.251C489.844 120.693 500.074 120.478 508.493 120.53L508.581 133.94L521.919 134.023L521.979 160.322L534.984 160.458L535.052 173.938L548.341 174.065L548.472 134.022L562.009 133.999L562.063 120.424C601.893 120.986 642.373 120.215 682.352 120.558C682.486 124.957 682.449 129.524 682.475 133.938L709.039 134.009L709.124 146.962L722.436 147.088L722.473 173.918L735.981 174.092C736.457 200.319 736.084 227.649 736.098 253.964L762.433 254.027C762.916 227.811 762.536 200.4 762.558 174.098L775.93 174.067L775.974 147.061L789.368 147.054L789.581 134.012L816.003 134L816.055 120.423C855.872 121.002 896.384 120.212 936.355 120.559C936.531 124.924 936.465 129.55 936.48 133.937L949.991 134.015L950.05 173.945L963.334 174.065L963.466 160.456L976.429 160.402L976.48 134.025L989.969 133.999L990.079 120.456L1016.96 120.406L1017.01 106.976L1043.4 106.962L1043.57 93.5365L1124.01 93.5592L1124.11 133.941L1136.92 134.001L1137.03 93.5145L1150.48 93.4816L1150.55 80.5119L1270.89 80.5177C1271.36 93.095 1271.05 107.533 1271.08 120.251L1284.46 120.453L1284.53 107.012L1297.41 106.959L1297.57 80.5089L1310.95 80.4643L1310.97 67.032C1324.18 66.7853 1338.08 67.0159 1351.33 67.0266L1351.51 53.4716L1404.98 53.4402L1405.05 40.0656L1458.51 40.093L1458.46 53.6027C1453.66 53.7634 1449.79 53.8569 1444.97 53.6505L1444.95 80.6232L1431.57 80.8472L1431.48 106.992L1417.96 107.135L1417.94 134.02L1405.06 134.149L1405.04 174.108L1391.49 174.253L1391.41 240.989L1378.08 241.176L1378.06 334.629L1364.48 334.834C1363.98 367.426 1364.45 401.334 1364.45 434.015L1364.44 628.918L1378.03 628.995L1378.1 682.344L1391.41 682.481L1391.47 735.877L1405 735.98C1405.52 771.109 1405.06 807.813 1405.05 843.053C1396.07 843.14 1387.08 843.119 1378.1 842.994L1378.07 829.756C1373.64 829.815 1368.88 829.632 1364.43 829.551L1364.39 816.197L1351.51 816.014L1351.35 802.747C1346.96 802.834 1342.43 802.681 1338.03 802.586L1337.99 789.868C1333.45 789.919 1329.04 789.729 1324.5 789.553L1324.49 776.132L1310.99 776.059L1310.97 762.843C1306.49 762.807 1302.01 762.733 1297.53 762.624L1297.48 749.1L1271.07 749.027C1270.98 744.795 1271.07 740.351 1271.08 736.104L1257.5 735.951L1257.44 722.723L1244.11 722.639V709.167L1231.07 708.983L1231.05 695.753C1226.68 695.801 1221.82 695.637 1217.41 695.572L1217.36 682.766C1212.81 682.896 1208.58 682.729 1204.04 682.567L1204.02 655.86C1199.49 655.913 1194.97 655.709 1190.45 655.548C1190.39 642.205 1190.42 628.862 1190.53 615.519L1204.01 615.448L1204.03 575.486L1217.38 575.457L1217.48 548.463L1231.02 548.418L1231.06 508.439L1244 508.363C1244.31 495.45 1244.07 481.513 1244.1 468.514L1257.45 468.487L1257.49 428.102L1270.96 428.048L1271.02 401.847C1262.05 401.776 1253.08 401.798 1244.1 401.913L1244.03 414.601C1239.65 414.808 1235.45 414.778 1231.06 414.761L1231.05 468.517L1221.41 468.73C1219.79 468.691 1219.11 468.5 1217.78 469.409C1216.9 475.193 1217.4 501.736 1217.4 508.708L1204.03 508.864L1204.02 562.09L1190.58 562.284C1190.34 575.35 1190.51 588.841 1190.39 601.992L1177.58 602.22L1177.47 628.999L1163.97 629.145L1163.94 642.079L1124.11 642.065L1124.1 629.076L1110.47 628.973L1110.4 615.75L1030.01 615.701L1029.97 602.084L1003.5 601.935L1003.44 588.73C994.449 588.735 985.453 588.689 976.458 588.591L976.48 522.045L989.969 522.021C990.401 509.268 990.057 494.43 990.086 481.508L1003.46 481.472L1003.44 441.716C998.979 441.771 994.522 441.75 990.065 441.654L990.05 455.061L976.48 455.313L976.414 495.006L963.481 495.179L963.364 548.609C958.921 548.76 954.485 548.806 950.042 548.746L950.02 575.614C941.589 575.696 931.276 576.063 922.99 575.611L922.983 588.666L856.084 588.655L856.033 575.777C833.899 575.469 811.692 575.922 789.522 575.548L789.508 562.191L775.981 562.081V548.456L789.456 548.426L789.566 481.525L802.39 481.463L802.485 428.074L816.011 428.049L816.047 374.816L802.536 374.9C802.184 387.734 802.404 401.706 802.367 414.603C798.13 414.712 793.826 414.726 789.581 414.777C789.61 428.203 789.566 441.628 789.442 455.053L775.959 455.263L775.945 481.687L762.572 481.857L762.484 508.716C753.687 508.818 744.896 508.804 736.106 508.673L736.098 495.074L722.489 494.979L722.419 455.184L709.104 455.03L709.073 414.765C704.379 414.913 700.119 414.693 695.441 414.486L695.4 374.771L682.558 374.889C681.823 395.564 682.5 420.397 682.522 441.392L695.387 441.519L695.463 481.271L709.01 481.554C709.361 503.549 709.083 526.297 709.099 548.35L722.417 548.486L722.437 562.106L709.074 562.245L709.038 575.63C687.796 575.655 662.88 576.362 641.969 575.641L641.964 588.669C619.785 588.768 597.605 588.746 575.426 588.604L575.383 575.733C566.393 575.746 557.404 575.685 548.416 575.548L548.36 548.78C543.75 548.88 539.637 548.733 535.046 548.555L535.04 495.075L521.985 494.995L521.977 455.167L508.573 454.982L508.457 441.752C503.862 441.794 499.551 441.849 494.953 441.622L494.97 494.927L508.507 495.001L508.557 521.953L521.92 522.043L521.948 588.629L495.014 588.868L494.952 602.007C486.133 601.991 477.314 602.059 468.495 602.21L468.435 615.678L387.991 615.841L387.974 629.017L374.601 629.179L374.47 642.068C361.222 642.194 347.78 642.057 334.515 642.041L334.437 629.113L321.1 628.995C320.946 620.186 321.09 610.928 321.104 602.082L307.487 601.95L307.422 562.187L294.466 562.052C294.153 544.646 294.387 526.253 294.36 508.782L281.054 508.668L281.03 468.741C276.576 468.76 271.895 468.63 267.424 468.572L267.361 414.793C262.894 414.861 258.487 414.712 254.025 414.589L253.997 401.853C245.185 401.757 236.373 401.782 227.561 401.926V427.858L240.901 428.082L240.975 468.367L253.955 468.541L254.004 508.224L267.36 508.522C267.789 521.198 267.479 535.556 267.49 548.36L280.989 548.47L281.045 575.381L294.358 575.511C294.555 588.66 294.434 602.121 294.462 615.297L307.413 615.589C307.594 628.829 307.427 642.402 307.411 655.669L294.496 655.953L294.368 682.609C289.792 682.792 285.612 682.785 281.048 682.744L281.03 695.624L267.558 695.842L267.402 709.02L254 709.102L253.99 722.645L241.011 722.872L240.953 736.009L227.567 736.156L227.481 749.034C218.501 749.042 209.52 749.086 200.541 749.188L200.472 762.689L187.488 762.909L187.401 776.066L174.072 776.176L174.059 789.663L160.483 789.941L160.388 802.593C155.696 802.739 151.765 802.834 147.05 802.644L147.049 816.079L133.987 816.262L133.977 829.625L120.599 829.873L120.457 843.053C111.495 843.14 102.532 843.111 93.5711 842.958C93.0507 807.835 93.5214 771.256 93.5521 736.016L106.941 735.951L106.982 682.454L120.451 682.417L120.564 615.523L133.98 615.446L133.993 348.115L120.576 347.944L120.471 241.093L106.985 240.977L106.955 187.776C102.544 187.878 97.9561 187.655 93.5331 187.512L93.4862 134.091L80.5229 133.99L80.4417 107.11L67.0885 106.985L67.0414 80.7572C62.5768 80.7835 57.9436 80.621 53.4662 80.528L53.4166 53.7374C49.0042 53.8547 44.5201 53.6868 40.1021 53.5789L40.0743 40.0902ZM1257.44 134.018L1244.07 134.124L1244.02 160.668C1240.58 160.731 1234.27 161.03 1231.06 160.706L1231.05 174.121L1217.5 174.245L1217.36 200.628L1204.03 200.781L1204.01 227.673L1190.58 227.827C1190.61 236.569 1190.54 245.312 1190.37 254.053L1177.58 254.167L1177.48 281.077L1163.96 281.181L1163.98 294.33L1176.58 294.411L1190.4 294.401L1190.54 281.075L1203.99 281.058L1204.03 267.412L1217.38 267.373L1217.48 254.041L1231.02 254.03L1231.06 227.533L1244.03 227.467L1244.1 187.463L1257.45 187.437L1257.51 160.449L1270.99 160.401L1271.06 120.756L1257.51 120.805L1257.44 134.018ZM441.45 240.897L455.008 240.984L455.098 267.282L468.424 267.472L468.489 294.336L481.484 294.473L481.567 307.387L494.879 307.51L494.977 334.366L508.497 334.542L508.573 360.928L521.942 360.982L521.975 321.162L508.569 320.965C508.542 307.776 508.369 294.319 508.499 281.154L494.978 281.071L494.977 254.104L481.56 254.027L481.491 241.099L468.492 240.954L468.428 227.736L455.11 227.646L455.113 214.112L441.768 214.18C441.04 220.338 441.455 234.168 441.45 240.897ZM1056.99 214.106L1043.61 214.164L1043.45 227.657L1029.99 227.84L1029.95 241L1017.02 241.162L1017 254.059L1003.5 254.159L1003.44 281.079L990.05 281.17C990.043 289.739 990.204 299.109 990.013 307.62L976.473 307.778L976.465 360.927L989.962 360.987L990.086 334.516L1003.46 334.494L1003.51 307.508L1016.97 307.457L1017.03 281.041L1029.92 281.055L1029.98 267.424L1043.47 267.375L1043.57 241L1056.96 240.962L1056.99 214.106Z" fill="black"/>
</svg>
